<?xml version="1.0" standalone="no"?>
<!DOCTYPE svg PUBLIC "-//W3C//DTD SVG 20010904//EN"
 "http://www.w3.org/TR/2001/REC-SVG-20010904/DTD/svg10.dtd">
<svg version="1.0" xmlns="http://www.w3.org/2000/svg"
 width="1500.000000pt" height="1500.000000pt" viewBox="0 0 1500.000000 1500.000000"
 preserveAspectRatio="xMidYMid meet">
<metadata>
Created by potrace 1.11, written by Peter Selinger 2001-2013
</metadata>
<g transform="translate(0.000000,1500.000000) scale(0.100000,-0.100000)"
fill="#000000" stroke="none">
<path d="M7327 13214 c-1 -1 -67 -5 -147 -8 -80 -4 -163 -9 -185 -11 -72 -8
-149 -15 -205 -20 -30 -3 -82 -10 -115 -15 -33 -5 -73 -12 -90 -14 -461 -65
-1025 -228 -1490 -431 -140 -60 -387 -183 -473 -234 -29 -17 -55 -31 -57 -31
-3 0 -34 -18 -70 -40 -36 -22 -68 -40 -71 -40 -2 0 -17 -8 -32 -19 -15 -10
-92 -61 -172 -113 -245 -161 -510 -365 -720 -553 -69 -62 -434 -427 -479 -480
-98 -114 -275 -330 -332 -405 -60 -80 -249 -360 -314 -466 -336 -552 -585
-1170 -723 -1790 -22 -99 -43 -197 -46 -219 -4 -22 -11 -65 -16 -95 -11 -61
-13 -75 -35 -230 -5 -35 -14 -114 -21 -185 -3 -33 -7 -76 -10 -95 -22 -186
-22 -763 2 -1010 2 -25 6 -63 8 -85 8 -94 29 -246 62 -465 9 -59 63 -309 90
-415 139 -552 359 -1085 648 -1569 39 -66 78 -131 86 -145 37 -64 191 -286
269 -390 248 -331 480 -585 826 -901 85 -78 275 -233 390 -319 61 -45 117 -88
125 -94 92 -71 409 -269 578 -362 598 -326 1259 -557 1897 -661 325 -52 639
-78 970 -78 173 0 462 10 535 18 19 3 67 7 105 11 65 5 176 20 235 30 14 2 44
7 67 9 143 18 416 75 608 126 83 23 159 43 169 45 10 2 85 25 165 51 426 137
901 357 1281 593 112 70 378 248 390 262 3 3 43 34 90 69 823 616 1517 1511
1915 2470 138 335 268 750 329 1055 4 17 9 41 11 55 13 63 26 127 29 150 3 14
10 59 16 100 6 41 13 86 16 100 7 42 23 181 29 255 4 39 8 81 11 95 22 138 21
826 -1 985 -2 17 -6 59 -10 95 -34 392 -122 832 -246 1225 -341 1078 -973
2025 -1854 2776 -751 640 -1661 1084 -2640 1288 -104 21 -374 66 -460 76 -27
3 -59 8 -70 10 -11 2 -58 7 -105 10 -47 3 -94 8 -105 10 -50 10 -648 27 -658
19z m458 -369 c182 -11 218 -14 270 -19 28 -3 77 -8 110 -12 33 -3 101 -12
150 -19 50 -8 110 -17 135 -20 59 -9 251 -48 365 -75 50 -12 97 -23 105 -25
108 -26 480 -145 545 -175 11 -5 53 -20 93 -34 311 -109 765 -349 1122 -594
503 -344 955 -777 1341 -1287 93 -122 369 -541 369 -560 0 -2 15 -30 34 -62
166 -288 332 -672 450 -1043 54 -171 138 -500 151 -590 4 -24 8 -47 10 -50 2
-3 6 -23 9 -45 4 -22 11 -65 16 -95 5 -30 12 -71 14 -90 3 -19 10 -66 15 -105
9 -65 15 -120 26 -250 35 -406 20 -914 -40 -1305 -116 -757 -365 -1449 -753
-2090 -54 -88 -184 -288 -226 -345 -368 -502 -766 -908 -1231 -1255 -184 -137
-275 -198 -470 -315 -257 -155 -363 -210 -635 -333 -74 -33 -329 -132 -420
-164 -224 -76 -644 -186 -817 -214 -19 -3 -44 -7 -53 -9 -10 -2 -40 -7 -67
-11 -26 -3 -57 -8 -68 -10 -11 -2 -42 -6 -70 -9 -27 -3 -61 -7 -75 -10 -44 -7
-177 -20 -335 -31 -189 -14 -706 -7 -815 10 -14 3 -63 7 -110 11 -109 8 -187
17 -261 30 -315 53 -563 108 -754 166 -266 81 -403 130 -606 215 -146 61 -427
197 -514 248 -33 20 -67 39 -75 43 -37 17 -304 183 -390 241 -177 122 -497
374 -600 473 -379 364 -516 514 -734 804 -239 317 -456 680 -628 1050 -89 191
-226 557 -272 725 -8 30 -23 82 -32 115 -9 33 -18 67 -19 75 -2 8 -15 61 -29
118 -14 56 -28 117 -31 135 -3 17 -14 75 -25 127 -22 112 -30 165 -45 285 -4
33 -9 68 -10 77 -2 9 -7 52 -10 95 -4 43 -9 92 -11 108 -22 173 -22 822 0 955
3 14 7 61 11 105 3 44 8 87 10 95 2 8 6 40 9 70 3 30 8 64 10 75 2 11 6 41 10
66 22 153 76 402 131 604 44 166 164 521 204 610 6 11 16 36 24 55 67 158 206
448 267 555 13 22 36 65 53 95 117 214 351 548 556 795 168 201 431 471 606
621 44 38 82 71 85 74 21 22 146 123 249 200 813 609 1725 976 2726 1095 179
21 225 25 420 32 94 3 171 6 172 7 5 4 251 -2 358 -9z"/>
<path d="M8297 10209 c-11 -6 -35 -29 -55 -52 -21 -22 -50 -54 -67 -72 -16
-17 -55 -58 -85 -91 -30 -33 -106 -114 -168 -181 -174 -186 -181 -194 -212
-258 -45 -89 -41 -190 10 -273 11 -18 20 -37 20 -43 0 -10 -304 -311 -320
-317 -4 -2 -19 8 -32 21 -32 33 -274 291 -331 353 l-46 50 25 37 c77 113 74
252 -7 372 -42 62 -186 194 -290 265 -175 120 -288 150 -376 100 -168 -95
-144 -329 66 -646 97 -147 175 -212 276 -232 63 -12 109 -8 173 16 l52 20 176
-231 c97 -127 178 -236 181 -242 2 -7 -2 -19 -10 -26 -8 -8 -132 -129 -277
-269 -344 -333 -368 -359 -379 -397 -13 -46 3 -96 40 -127 17 -14 36 -26 42
-27 7 -1 24 -2 39 -3 58 -6 74 11 437 446 118 142 218 255 223 252 4 -3 61
-76 125 -162 65 -86 120 -159 124 -162 3 -3 18 -23 35 -45 102 -139 239 -307
265 -326 25 -17 40 -20 81 -17 71 7 110 47 115 120 6 70 9 66 -338 433 -37 38
-81 86 -99 105 -17 19 -62 67 -99 105 -36 39 -72 78 -80 87 -11 15 2 35 116
170 70 84 138 165 151 179 l23 26 57 -23 c43 -17 72 -22 123 -20 121 5 142 23
455 361 122 132 217 234 250 269 32 34 44 64 35 88 -10 26 -29 38 -62 38 -23
0 -13 10 -293 -294 -199 -216 -230 -245 -243 -235 -7 6 -13 14 -13 18 0 7 92
109 291 322 130 139 195 212 201 228 11 31 -14 66 -50 69 -36 4 -36 4 -222
-198 -58 -62 -125 -134 -149 -159 -24 -25 -70 -76 -103 -113 -37 -41 -65 -65
-74 -61 -21 8 -17 27 12 59 60 67 290 314 407 439 44 46 57 67 57 91 0 34 -15
52 -51 59 -25 5 -59 -27 -249 -234 -58 -63 -118 -129 -135 -146 -16 -18 -56
-60 -87 -94 -61 -64 -69 -69 -86 -48 -8 9 8 32 61 88 119 126 281 301 297 320
9 9 42 45 73 79 64 68 74 107 35 134 -26 19 -36 19 -61 5z"/>
<path d="M4510 7183 c-128 -32 -200 -120 -195 -238 4 -115 66 -171 245 -225
147 -43 180 -65 180 -118 0 -63 -132 -78 -250 -28 -35 16 -84 41 -107 57 l-42
30 -40 -80 -40 -79 37 -25 c269 -184 648 -110 657 128 5 136 -53 198 -246 260
-60 19 -118 39 -128 45 -87 46 -58 124 45 122 61 -2 116 -18 202 -61 24 -11
45 -21 47 -21 5 0 75 149 75 159 0 14 -116 61 -190 77 -84 17 -176 16 -250 -3z"/>
<path d="M5089 7189 c-8 -4 -13 -91 -10 -149 1 -13 21 -15 119 -15 l117 0 3
-322 2 -323 104 0 103 0 0 315 c0 173 3 318 7 322 4 5 58 8 119 8 l112 0 3 83
c2 73 1 82 -15 83 -86 4 -657 3 -664 -2z"/>
<path d="M6220 7186 c-188 -40 -318 -188 -328 -372 -12 -237 151 -420 392
-441 321 -27 560 261 458 550 -41 116 -147 216 -266 252 -67 21 -187 26 -256
11z m185 -176 c145 -55 192 -252 91 -384 -51 -68 -159 -97 -245 -67 -53 20
-122 93 -139 149 -57 190 117 369 293 302z"/>
<path d="M10290 7184 c-163 -44 -242 -193 -173 -329 30 -57 88 -93 208 -129
159 -48 195 -71 195 -122 0 -96 -217 -76 -367 34 l-32 24 -40 -80 -40 -80 49
-32 c267 -171 627 -102 645 125 10 120 -45 197 -174 246 -31 11 -63 22 -72 24
-27 5 -110 35 -133 47 -50 27 -61 78 -21 104 50 32 137 19 277 -44 l46 -21 40
81 39 80 -62 29 c-119 56 -273 73 -385 43z"/>
<path d="M6958 7183 c-2 -5 -4 -186 -3 -403 l1 -395 97 -3 97 -3 2 248 3 248
40 -55 c22 -30 43 -59 48 -65 30 -39 144 -191 206 -275 l74 -101 91 3 91 3 0
403 0 402 -97 0 -98 0 2 -240 c1 -132 -1 -242 -3 -244 -2 -3 -86 105 -187 240
l-182 244 -89 0 c-50 0 -91 -3 -93 -7z"/>
<path d="M7950 6785 l0 -405 324 0 324 0 -1 80 c0 66 -3 80 -16 81 -9 0 -108
1 -221 2 l-205 2 0 80 0 80 192 0 c147 0 193 3 194 13 1 16 1 83 0 122 l-1 30
-193 0 -192 0 0 78 0 77 210 3 c126 1 212 6 215 12 5 9 6 110 1 143 -1 4 -143
7 -316 7 l-315 0 0 -405z"/>
<path d="M8810 6786 l0 -406 104 0 104 0 0 88 c0 48 1 99 1 115 l1 27 79 0 80
0 61 -115 61 -115 115 0 c63 0 114 2 114 4 0 3 -36 61 -80 130 l-81 126 55 53
c67 66 91 132 84 237 -8 115 -53 180 -156 228 -56 27 -61 27 -299 30 l-243 4
0 -406z m435 230 c46 -20 68 -57 68 -116 -1 -58 -25 -98 -70 -116 -34 -15
-223 -20 -224 -6 0 10 -1 214 0 235 1 15 12 17 96 17 60 0 108 -5 130 -14z"/>
<path d="M9720 7032 l0 -158 73 1 72 1 3 157 3 157 -76 0 -75 0 0 -158z"/>
<path d="M5785 5840 l-50 -5 0 -390 c-1 -214 1 -396 3 -402 3 -9 33 -13 103
-13 96 0 99 1 100 23 1 12 1 79 1 150 l0 127 182 0 183 0 0 80 0 80 -181 2
-181 3 -1 93 -1 92 199 0 199 0 -3 81 -3 81 -250 1 c-137 1 -272 0 -300 -3z"/>
<path d="M6840 5847 c-3 -3 -23 -8 -45 -11 -63 -10 -157 -61 -212 -116 -139
-139 -156 -360 -40 -523 76 -107 195 -168 338 -173 134 -5 238 31 327 112 135
122 172 316 92 480 -68 139 -199 219 -374 231 -45 3 -83 3 -86 0z m147 -188
c17 -6 50 -28 72 -50 93 -93 93 -252 1 -346 -58 -60 -119 -77 -214 -59 -62 11
-128 76 -152 148 -65 198 97 368 293 307z"/>
<path d="M7810 5836 c-121 -25 -237 -113 -290 -216 -74 -145 -44 -343 69 -464
84 -89 185 -130 321 -129 114 0 136 5 217 44 111 55 200 169 218 279 4 25 9
53 11 62 6 36 -17 152 -42 202 -86 176 -294 268 -504 222z m190 -178 c76 -24
143 -129 141 -224 -1 -136 -97 -237 -226 -237 -156 0 -263 164 -210 322 21 64
98 137 153 147 20 3 42 7 47 9 12 4 47 -3 95 -17z"/>
<path d="M8551 5835 c-5 -8 -7 -754 -2 -798 1 -5 103 -7 229 -5 209 4 232 6
287 28 171 66 267 210 259 390 -3 81 -7 99 -37 164 -56 123 -175 205 -321 222
-86 11 -407 10 -415 -1z m443 -184 c75 -37 125 -132 120 -230 -5 -99 -55 -178
-130 -207 -42 -16 -190 -27 -220 -17 -8 3 -12 73 -12 243 l1 239 98 -3 c75 -3
109 -9 143 -25z"/>
<path d="M6032 4305 c-41 -18 -67 -72 -52 -109 11 -30 39 -48 108 -71 63 -20
81 -46 53 -74 -28 -28 -101 -19 -143 17 -16 13 -18 12 -29 -12 -11 -23 -10
-28 7 -41 72 -55 207 -41 234 26 24 57 -8 106 -83 129 -60 19 -87 37 -87 61 0
37 62 44 123 14 24 -12 28 -12 37 5 6 10 10 22 10 27 0 31 -126 51 -178 28z"/>
<path d="M6319 4317 c-3 -9 -4 -314 -1 -324 2 -7 15 -13 28 -13 28 0 26 -14
28 187 0 79 -1 143 -4 144 -3 0 -15 2 -27 5 -13 2 -23 3 -24 1z"/>
<path d="M6498 4306 c-3 -9 -2 -259 1 -308 1 -21 47 -25 53 -5 2 6 3 58 2 115
-1 56 1 102 5 101 3 0 43 -52 89 -115 74 -100 87 -114 113 -114 l29 0 0 164
c0 136 -3 165 -15 170 -31 11 -44 -4 -43 -52 0 -26 -1 -78 -1 -116 l-1 -70
-86 117 c-47 64 -89 117 -92 118 -41 5 -52 4 -54 -5z"/>
<path d="M6982 4299 c-127 -57 -132 -238 -8 -298 54 -27 108 -27 163 0 44 21
52 36 32 56 -9 9 -21 7 -48 -8 -43 -23 -72 -24 -115 -4 -95 45 -81 186 21 214
40 11 67 7 100 -15 22 -14 27 -14 40 -2 22 23 5 46 -45 61 -59 19 -94 18 -140
-4z"/>
<path d="M7278 4225 c-2 -49 -2 -125 0 -167 l3 -78 122 0 123 0 0 25 c0 25 0
25 -93 25 -51 0 -93 3 -94 8 -6 41 -3 82 5 84 6 2 44 3 84 3 71 -1 72 -1 72
24 0 26 -1 26 -82 26 l-81 0 -1 43 c-1 23 3 43 9 43 5 1 46 2 90 3 78 1 80 2
80 26 l0 25 -117 0 -117 1 -3 -91z"/>
<path d="M7829 4309 c-33 -8 -69 -32 -69 -44 1 -30 17 -35 55 -15 49 25 70 25
94 1 32 -32 26 -44 -91 -168 -32 -34 -58 -70 -58 -82 0 -20 5 -21 120 -21
l120 0 0 25 c0 23 -3 24 -79 27 l-80 3 63 68 c35 37 67 83 73 101 25 82 -47
133 -148 105z"/>
<path d="M8165 4306 c-58 -25 -87 -79 -86 -158 0 -72 32 -135 78 -154 44 -19
111 -14 148 10 78 51 74 243 -6 290 -39 23 -96 28 -134 12z m110 -56 c20 -22
23 -32 29 -95 3 -42 -9 -92 -29 -113 -33 -36 -120 -9 -131 41 -15 72 -2 150
29 172 31 22 80 19 102 -5z"/>
<path d="M8481 4298 c-41 -20 -48 -32 -33 -56 6 -9 18 -7 50 8 51 25 67 25 91
1 29 -29 18 -51 -70 -146 -44 -47 -79 -94 -79 -105 0 -19 7 -20 120 -20 l120
0 0 25 c0 25 -1 25 -81 25 l-81 0 65 70 c69 76 92 127 76 164 -24 51 -110 68
-178 34z"/>
<path d="M8840 4302 c-67 -34 -97 -137 -66 -229 21 -60 54 -86 120 -90 94 -7
147 50 149 161 1 70 -21 126 -59 151 -37 24 -104 27 -144 7z m120 -54 c11 -12
21 -31 21 -42 1 -12 3 -34 5 -51 4 -39 -12 -99 -32 -116 -24 -20 -82 -15 -106
9 -23 22 -36 109 -24 157 16 63 94 88 136 43z"/>
</g>
</svg>
